<?xml version="1.0" encoding="utf-8"?>
<!-- Generator: Adobe Illustrator 19.2.0, SVG Export Plug-In . SVG Version: 6.00 Build 0)  -->
<svg version="1.1" id="Layer_1" xmlns="http://www.w3.org/2000/svg" xmlns:xlink="http://www.w3.org/1999/xlink" x="0px" y="0px"
	 viewBox="0 0 800 800" style="enable-background:new 0 0 800 800;" xml:space="preserve">
<style type="text/css">
	.st0{display:none;fill:none;}
	.st1{display:none;}
	.st2{display:inline;}
	.st3{fill:#FFFFFF;}
</style>
<image style="display:none;overflow:visible;" width="1386" height="253" xlink:href="EvolveU.jpg"  transform="matrix(1 0 0 1 -371 66)">
</image>
<path class="st0" d="M354,66c127.7,0,255.3,0,383,0c231,0,462,0,693,0l0,0c0,42.2,0,84.3,0,126.5s0,84.3,0,126.5l0,0
	c-231,0-462,0-693,0s-462,0-693,0l0,0c0-42.2,0-84.3,0-126.5s0-84.3,0-126.5l0,0C147.3,66,250.7,66,354,66"/>
<g class="st1">
	<g id="_x36_ZaLpW.tif" class="st2">

			<image style="overflow:visible;" width="287" height="252" id="Layer_1_1_" xlink:href="D62EDEC73DBDBB75.png"  transform="matrix(1 0 0 1 -328 388)">
		</image>
	</g>
	<g class="st2">
		<path d="M43,612.9c0-67.8,0-135,0-202.7c41.6,0,82.9,0,124.5,0c0,12.2,0,24.2,0,36.8c-26.1,0-52.1,0-78.7,0
			c-0.1,2.8-0.4,5.1-0.4,7.3c0,10.2,0.2,20.3-0.1,30.5c-0.2,4.6,1.4,5.6,5.7,5.5c21.2-0.2,42.3,0.1,63.5-0.2c4.9-0.1,6.2,1.5,6,6.2
			c-0.3,10.1-0.1,20.2-0.1,30.9c-25.2,0-49.8,0-74.7,0c0,16.3,0,32,0,48.4c27.6,0,55,0,82.8,0c0,12.7,0,24.7,0,37.3
			C128.9,612.9,86.2,612.9,43,612.9z"/>
		<path d="M340.8,540.5c-0.2-11.6,1.6-22.9,6-33.7c7.7-19,21.2-32.1,40.3-39.1c18.1-6.6,36.8-7.6,55.5-2.5
			c25.2,6.9,41.6,23.2,48.8,48.1c5.7,19.7,4.8,39.6-2.8,58.8c-7.1,17.9-19.9,30.6-37.7,37.9c-20.8,8.6-42.1,9.1-63.4,1.7
			C358,601.6,340.8,575.1,340.8,540.5z M387.7,539.6c0.3,10.7,1.8,21,7.2,30.4c5.2,9.1,13.1,14.3,23.6,14.1
			c10.4-0.1,18.2-5.6,22.6-14.8c9.3-19.6,9.3-39.6,0.3-59.2c-4.3-9.4-12-15-22.8-15.1c-10.9-0.1-18.6,5.2-23.9,14.5
			C389.4,518.8,388,529.1,387.7,539.6z"/>
		<path d="M875.7,554.1c-32,0-63.4,0-95.4,0c0.3,7.8,3.4,13.6,8.7,18.2c8.1,7,17.8,9.5,28.1,10.1c15.3,0.8,30.2-1.1,45.4-6.1
			c2,10.3,4,20.3,6.3,31.7c-9.5,2.3-18.7,5-28.1,6.5c-17.5,2.7-35.1,3.1-52.5-1.4c-29.2-7.4-49-31-51.1-61.1
			c-1.4-19.9,1.1-38.9,11.9-56.1c16.3-25.9,40.6-35.5,70.1-32.9c39.4,3.5,53.6,33,56.5,58C876.8,531.6,875.7,542.7,875.7,554.1z
			 M780.3,522.8c17.8,0,35.7,0,53.5,0c2.2-15.1-8.2-28.8-22.5-29.8C794.3,491.7,780.5,504.8,780.3,522.8z"/>
		<path d="M262.2,569.7c0.9-4,1.7-7.9,2.7-11.9c7.8-29.6,15.7-59.1,23.7-88.6c0.4-1.4,2.5-3.3,3.8-3.4c14.6-0.2,29.3-0.2,44.8-0.2
			c-0.6,2.1-1,3.8-1.6,5.4c-17,45.8-34.1,91.6-51.1,137.5c-1.3,3.4-2.8,4.9-6.7,4.9c-12.3-0.3-24.7-0.2-37,0c-2.9,0-4.4-0.9-5.5-3.7
			c-16.9-46.7-33.9-93.5-50.9-140.2c-0.3-0.9-0.5-1.9-0.8-3.2c0.9-0.2,1.7-0.5,2.4-0.5c14.3,0,28.7,0.1,43-0.1
			c3.7-0.1,4.3,2.1,5,4.8c8.7,31.9,17.4,63.8,26.1,95.7c0.3,1.2,0.7,2.4,1.1,3.5C261.6,569.7,261.9,569.7,262.2,569.7z"/>
		<path d="M658.2,569.8c1.4-6.5,2.6-13,4.3-19.3c7.2-27,14.5-53.9,21.8-80.9c0.6-2.2,1.2-3.9,4.2-3.9c14.2,0.2,28.3,0.1,42.5,0.1
			c0.5,0,0.9,0.3,1.9,0.6c-0.8,2.5-1.5,5-2.4,7.4c-16.8,45-33.6,90-50.2,135.1c-1.3,3.4-2.9,4.5-6.4,4.5c-12.3-0.2-24.7-0.1-37-0.1
			c-2.5,0-4.3-0.2-5.3-3.1c-17.2-47.5-34.5-95-51.7-142.6c-0.1-0.3-0.1-0.6-0.3-1.5c1.2-0.2,2.5-0.5,3.7-0.5c13.7,0,27.3,0.1,41-0.1
			c3.6-0.1,4.8,1.3,5.7,4.6C639.2,503.3,648.7,536.4,658.2,569.8z"/>
		<path d="M1032.8,410.1c8.9,0,17.1,0,25.6,0c0.1,1.7,0.3,3.1,0.3,4.6c0,40.3,0.3,80.6-0.1,121c-0.2,19.8-4.5,38.7-16.7,54.9
			c-11.4,15.1-27.1,22.7-45.4,25.2c-16.4,2.2-32.6,1.4-47.9-5.5c-21.2-9.5-31.7-27.2-36.3-48.9c-2-9.2-3-18.8-3.1-28.2
			c-0.3-39.6-0.1-79.3-0.1-119c0-1.2,0.1-2.3,0.2-4.3c8.1,0,16.2-0.1,24.2,0.2c0.7,0,1.9,2.8,1.9,4.3c0.2,12.7,0.1,25.3,0.1,38
			c0.1,29.8-0.3,59.7,0.4,89.5c0.4,15.9,4.8,31.1,16.9,42.6c20.9,19.7,57.7,13.4,71.3-12c6.9-12.9,8.6-26.9,8.7-41.1
			c0.2-38.2,0.1-76.3,0.1-114.5C1032.8,414.6,1032.8,412.5,1032.8,410.1z"/>
		<path d="M563.1,399.2c0,71.6,0,142.4,0,213.7c-14.9,0-29.6,0-45,0c-0.1-1.6-0.3-3.4-0.3-5.1c0-67.6,0-135.2-0.1-202.8
			c0-4.5,1.2-6,5.8-5.9C536.5,399.4,549.4,399.2,563.1,399.2z"/>
	</g>
</g>
<image style="overflow:visible;" width="287" height="252" id="Layer_1_2_" xlink:href="D62EDEC73DBDBB77.png"  transform="matrix(0.4288 0 0 0.4288 125.1448 353.8781)">
</image>
<path class="st3" d="M284.2,450.3c0-29.1,0-57.9,0-86.9c17.8,0,35.6,0,53.4,0c0,5.2,0,10.4,0,15.8c-11.2,0-22.3,0-33.8,0
	c-0.1,1.2-0.2,2.2-0.2,3.1c0,4.4,0.1,8.7-0.1,13.1c-0.1,2,0.6,2.4,2.4,2.4c9.1-0.1,18.1,0,27.2-0.1c2.1,0,2.6,0.6,2.6,2.7
	c-0.1,4.3,0,8.7,0,13.3c-10.8,0-21.3,0-32,0c0,7,0,13.7,0,20.8c11.8,0,23.6,0,35.5,0c0,5.4,0,10.6,0,16
	C321.1,450.3,302.8,450.3,284.2,450.3z"/>
<path class="st3" d="M411.9,419.3c-0.1-5,0.7-9.8,2.6-14.4c3.3-8.1,9.1-13.8,17.3-16.8c7.8-2.8,15.8-3.2,23.8-1.1
	c10.8,2.9,17.8,9.9,20.9,20.6c2.5,8.5,2.1,17-1.2,25.2c-3.1,7.7-8.6,13.1-16.2,16.2c-8.9,3.7-18.1,3.9-27.2,0.7
	C419.3,445.5,411.9,434.1,411.9,419.3z M432,418.9c0.1,4.6,0.8,9,3.1,13c2.2,3.9,5.6,6.1,10.1,6.1c4.5-0.1,7.8-2.4,9.7-6.3
	c4-8.4,4-17,0.1-25.4c-1.9-4-5.1-6.4-9.8-6.5c-4.7-0.1-8,2.2-10.2,6.2C432.8,410,432.2,414.4,432,418.9z"/>
<path class="st3" d="M641.3,425.1c-13.7,0-27.2,0-40.9,0c0.1,3.4,1.5,5.8,3.7,7.8c3.5,3,7.6,4.1,12.1,4.3c6.5,0.4,13-0.5,19.5-2.6
	c0.9,4.4,1.7,8.7,2.7,13.6c-4.1,1-8,2.2-12.1,2.8c-7.5,1.2-15.1,1.3-22.5-0.6c-12.5-3.2-21-13.3-21.9-26.2
	c-0.6-8.5,0.5-16.7,5.1-24.1c7-11.1,17.4-15.2,30-14.1c16.9,1.5,23,14.2,24.2,24.9C641.8,415.5,641.3,420.2,641.3,425.1z
	 M600.4,411.7c7.6,0,15.3,0,22.9,0c0.9-6.5-3.5-12.3-9.6-12.8C606.4,398.3,600.5,404,600.4,411.7z"/>
<path class="st3" d="M378.2,431.8c0.4-1.7,0.7-3.4,1.2-5.1c3.4-12.7,6.7-25.3,10.1-38c0.2-0.6,1.1-1.4,1.6-1.4
	c6.3-0.1,12.6-0.1,19.2-0.1c-0.3,0.9-0.4,1.6-0.7,2.3c-7.3,19.6-14.6,39.3-21.9,59c-0.5,1.5-1.2,2.1-2.9,2.1
	c-5.3-0.1-10.6-0.1-15.9,0c-1.3,0-1.9-0.4-2.3-1.6c-7.3-20-14.6-40.1-21.8-60.1c-0.1-0.4-0.2-0.8-0.3-1.4c0.4-0.1,0.7-0.2,1-0.2
	c6.1,0,12.3,0,18.4,0c1.6,0,1.8,0.9,2.2,2.1c3.7,13.7,7.5,27.4,11.2,41c0.1,0.5,0.3,1,0.5,1.5C378,431.8,378.1,431.8,378.2,431.8z"
	/>
<path class="st3" d="M548,431.8c0.6-2.8,1.1-5.6,1.8-8.3c3.1-11.6,6.2-23.1,9.4-34.7c0.3-0.9,0.5-1.7,1.8-1.7
	c6.1,0.1,12.1,0,18.2,0.1c0.2,0,0.4,0.1,0.8,0.3c-0.3,1.1-0.6,2.1-1,3.2c-7.2,19.3-14.4,38.6-21.5,57.9c-0.5,1.5-1.2,1.9-2.8,1.9
	c-5.3-0.1-10.6,0-15.9,0c-1.1,0-1.8-0.1-2.3-1.3c-7.4-20.4-14.8-40.8-22.2-61.1c0-0.1-0.1-0.3-0.1-0.6c0.5-0.1,1.1-0.2,1.6-0.2
	c5.9,0,11.7,0,17.6,0c1.5,0,2.1,0.6,2.4,2C539.9,403.3,543.9,417.5,548,431.8z"/>
<path class="st3" d="M708.7,363.3c3.8,0,7.3,0,11,0c0,0.7,0.1,1.3,0.1,2c0,17.3,0.1,34.6,0,51.9c-0.1,8.5-1.9,16.6-7.2,23.6
	c-4.9,6.5-11.6,9.7-19.5,10.8c-7,1-14,0.6-20.6-2.4c-9.1-4.1-13.6-11.7-15.6-21c-0.8-4-1.3-8.1-1.3-12.1c-0.1-17-0.1-34-0.1-51
	c0-0.5,0-1,0.1-1.9c3.5,0,6.9,0,10.4,0.1c0.3,0,0.8,1.2,0.8,1.8c0.1,5.4,0,10.9,0,16.3c0,12.8-0.1,25.6,0.2,38.4
	c0.2,6.8,2,13.3,7.2,18.2c9,8.4,24.8,5.7,30.6-5.1c2.9-5.5,3.7-11.5,3.7-17.6c0.1-16.4,0-32.7,0-49.1
	C708.7,365.3,708.7,364.4,708.7,363.3z"/>
<path class="st3" d="M507.3,358.7c0,30.7,0,61.1,0,91.6c-6.4,0-12.7,0-19.3,0c0-0.7-0.1-1.4-0.1-2.2c0-29,0-58,0-87
	c0-1.9,0.5-2.6,2.5-2.5C495.8,358.8,501.4,358.7,507.3,358.7z"/>
</svg>
